<?xml version="1.0" encoding="UTF-8"?>
<svg width="19px" height="19px" viewBox="0 0 19 19" version="1.1" xmlns="http://www.w3.org/2000/svg" xmlns:xlink="http://www.w3.org/1999/xlink">
    <!-- Generator: Sketch 55.2 (78181) - https://sketchapp.com -->
    <title>info-circle</title>
    <desc>Created with Sketch.</desc>
    <g id="v3" stroke="none" stroke-width="1" fill="none" fill-rule="evenodd">
        <g id="01-LandingPage-Option-1" transform="translate(-44.000000, -732.000000)" fill="#5F6368" fill-rule="nonzero">
            <g id="Group" transform="translate(44.500000, 732.500000)">
                <g id="info-circle">
                    <path d="M9,8.1 C8.50294373,8.1 8.1,8.50294373 8.1,9 L8.1,12.6 C8.1,13.0970563 8.50294373,13.5 9,13.5 C9.49705627,13.5 9.9,13.0970563 9.9,12.6 L9.9,9 C9.9,8.50294373 9.49705627,8.1 9,8.1 Z M9.342,4.572 C9.12288478,4.48198378 8.87711522,4.48198378 8.658,4.572 C8.54752381,4.61483495 8.44659334,4.67906343 8.361,4.761 C8.28150216,4.84848085 8.21757768,4.9489336 8.172,5.058 C8.12161678,5.16481144 8.0969579,5.28194112 8.1,5.4 C8.09861692,5.63922269 8.19253214,5.86915305 8.361,6.039 C8.44848085,6.11849784 8.5489336,6.18242232 8.658,6.228 C8.93487465,6.3417491 9.25018376,6.31040041 9.49924134,6.14436201 C9.74829893,5.97832362 9.89850892,5.69932625 9.9,5.4 C9.89668486,5.16170972 9.80346035,4.93347041 9.639,4.761 C9.55340666,4.67906343 9.45247619,4.61483495 9.342,4.572 Z M9,0 C4.02943725,0 0,4.02943725 0,9 C0,13.9705627 4.02943725,18 9,18 C13.9705627,18 18,13.9705627 18,9 C18,6.61305159 17.0517884,4.32386638 15.363961,2.63603897 C13.6761336,0.948211563 11.3869484,0 9,0 Z M9,16.2 C5.0235498,16.2 1.8,12.9764502 1.8,9 C1.8,5.0235498 5.0235498,1.8 9,1.8 C12.9764502,1.8 16.2,5.0235498 16.2,9 C16.2,10.9095587 15.4414307,12.7409069 14.0911688,14.0911688 C12.7409069,15.4414307 10.9095587,16.2 9,16.2 Z" id="Shape"></path>
                </g>
            </g>
        </g>
    </g>
</svg>