<svg width="24" height="24" viewBox="0 0 24 24" fill="none" xmlns="http://www.w3.org/2000/svg">
<path d="M12 2C6.48 2 2 6.48 2 12C2 17.52 6.48 22 12 22C17.52 22 22 17.52 22 12C22 6.48 17.52 2 12 2Z" fill="#C4CB4A"/>
<path d="M9.28996 16.29L5.69996 12.7C5.5127 12.5132 5.40747 12.2595 5.40747 11.995C5.40747 11.7305 5.5127 11.4768 5.69996 11.29C6.08996 10.9 6.71996 10.9 7.10996 11.29L9.99996 14.17L16.88 7.29C17.27 6.9 17.9 6.9 18.29 7.29C18.68 7.68 18.68 8.31 18.29 8.7L10.7 16.29C10.32 16.68 9.67996 16.68 9.28996 16.29Z" fill="white"/>
</svg>
