<?xml version="1.0" encoding="UTF-8"?>
<svg width="24px" height="24px" viewBox="0 0 24 24" version="1.1" xmlns="http://www.w3.org/2000/svg" xmlns:xlink="http://www.w3.org/1999/xlink">
    <!-- Generator: Sketch 55.2 (78181) - https://sketchapp.com -->
    <title>schedule</title>
    <desc>Created with Sketch.</desc>
    <g id="v3" stroke="none" stroke-width="1" fill="none" fill-rule="evenodd">
        <g id="01-LandingPage-Option-1" transform="translate(-45.000000, -646.000000)" fill="#008CCF" fill-rule="nonzero">
            <g id="button-primary" transform="translate(20.000000, 615.000000)">
                <g id="schedule" transform="translate(25.000000, 31.000000)">
                    <path d="M12,14.4 C12.6627417,14.4 13.2,13.8627417 13.2,13.2 C13.2,12.5372583 12.6627417,12 12,12 C11.3372583,12 10.8,12.5372583 10.8,13.2 C10.8,13.8627417 11.3372583,14.4 12,14.4 Z M18,14.4 C18.6627417,14.4 19.2,13.8627417 19.2,13.2 C19.2,12.5372583 18.6627417,12 18,12 C17.3372583,12 16.8,12.5372583 16.8,13.2 C16.8,13.8627417 17.3372583,14.4 18,14.4 Z M12,19.2 C12.6627417,19.2 13.2,18.6627417 13.2,18 C13.2,17.3372583 12.6627417,16.8 12,16.8 C11.3372583,16.8 10.8,17.3372583 10.8,18 C10.8,18.6627417 11.3372583,19.2 12,19.2 Z M18,19.2 C18.6627417,19.2 19.2,18.6627417 19.2,18 C19.2,17.3372583 18.6627417,16.8 18,16.8 C17.3372583,16.8 16.8,17.3372583 16.8,18 C16.8,18.6627417 17.3372583,19.2 18,19.2 Z M6,14.4 C6.6627417,14.4 7.2,13.8627417 7.2,13.2 C7.2,12.5372583 6.6627417,12 6,12 C5.3372583,12 4.8,12.5372583 4.8,13.2 C4.8,13.8627417 5.3372583,14.4 6,14.4 Z M20.4,2.4 L19.2,2.4 L19.2,1.2 C19.2,0.5372583 18.6627417,0 18,0 C17.3372583,0 16.8,0.5372583 16.8,1.2 L16.8,2.4 L7.2,2.4 L7.2,1.2 C7.2,0.5372583 6.6627417,0 6,0 C5.3372583,0 4.8,0.5372583 4.8,1.2 L4.8,2.4 L3.6,2.4 C1.6117749,2.4 0,4.0117749 0,6 L0,20.4 C0,22.3882251 1.6117749,24 3.6,24 L20.4,24 C22.3882251,24 24,22.3882251 24,20.4 L24,6 C24,4.0117749 22.3882251,2.4 20.4,2.4 Z M21.6,20.4 C21.6,21.0627417 21.0627417,21.6 20.4,21.6 L3.6,21.6 C2.9372583,21.6 2.4,21.0627417 2.4,20.4 L2.4,9.6 L21.6,9.6 L21.6,20.4 Z M21.6,7.2 L2.4,7.2 L2.4,6 C2.4,5.3372583 2.9372583,4.8 3.6,4.8 L20.4,4.8 C21.0627417,4.8 21.6,5.3372583 21.6,6 L21.6,7.2 Z M6,19.2 C6.6627417,19.2 7.2,18.6627417 7.2,18 C7.2,17.3372583 6.6627417,16.8 6,16.8 C5.3372583,16.8 4.8,17.3372583 4.8,18 C4.8,18.6627417 5.3372583,19.2 6,19.2 Z" id="Shape"></path>
                </g>
            </g>
        </g>
    </g>
</svg>